<svg width="58" height="35" viewBox="0 0 58 35" fill="none" xmlns="http://www.w3.org/2000/svg">
<path d="M38.6008 23.2887H36.7301V29.6829C36.7301 29.8026 36.6271 29.9052 36.507 29.9052H35.0653C34.9452 29.9052 34.8422 29.8026 34.8422 29.6829V23.2887H32.9544C32.9029 23.2887 32.8342 23.2716 32.7999 23.2374C32.7656 23.2032 32.7313 23.152 32.7313 23.0836V21.9552C32.7313 21.9039 32.7484 21.8355 32.7999 21.8013C32.8342 21.7671 32.9029 21.7329 32.9544 21.75H38.6008C38.7209 21.75 38.8239 21.8355 38.8239 21.9552V23.0836C38.8239 23.2032 38.7209 23.2887 38.6008 23.2887Z" fill="white"/>
<path d="M44.6076 29.8539C43.8696 29.9565 43.1144 30.0078 42.3765 29.9907C40.952 29.9907 39.6992 29.6316 39.6992 27.6313V23.9897C39.6992 21.9894 40.9692 21.6475 42.3936 21.6475C43.1316 21.6304 43.8696 21.6816 44.6076 21.7842C44.762 21.8013 44.8307 21.8697 44.8307 22.0065V23.0323C44.8307 23.152 44.7277 23.2545 44.6076 23.2545H42.2907C41.7758 23.2545 41.587 23.4255 41.587 24.0068V24.9984H44.5217C44.6419 24.9984 44.7449 25.101 44.7449 25.2207V26.2636C44.7449 26.3833 44.6419 26.4858 44.5217 26.4858H41.587V27.6484C41.587 28.2126 41.7758 28.4007 42.2907 28.4007H44.6076C44.7277 28.4007 44.8307 28.5032 44.8307 28.6229V29.6487C44.8307 29.7684 44.762 29.8368 44.6076 29.8539Z" fill="white"/>
<path d="M52.9141 29.9052H51.1636C51.0434 29.9223 50.9233 29.8539 50.8718 29.7342L49.3443 27.3407L47.9714 29.6829C47.9027 29.8197 47.8169 29.9052 47.6968 29.9052H46.0664C46.032 29.9052 45.9805 29.9052 45.9462 29.871C45.9119 29.8368 45.8947 29.8026 45.8947 29.7513C45.8947 29.7171 45.9119 29.7 45.9119 29.6829L48.2975 25.7165L45.8776 21.9552C45.8604 21.9381 45.8604 21.9039 45.8604 21.8868C45.8604 21.8013 45.9462 21.7329 46.032 21.75H47.8341C47.9542 21.75 48.04 21.8526 48.1087 21.9552L49.516 24.1778L50.889 21.9552C50.9404 21.8355 51.0434 21.7671 51.1636 21.75H52.794C52.8798 21.75 52.9656 21.8013 52.9656 21.8868C52.9656 21.9039 52.9484 21.9381 52.9484 21.9552L50.5457 25.7507L53.0514 29.6829C53.0686 29.7171 53.0857 29.7513 53.0857 29.7855C53.0686 29.8539 53.0171 29.9052 52.9141 29.9052Z" fill="white"/>
<path d="M30.0883 21.7671C30.0025 21.7671 29.9338 21.8184 29.9167 21.9039L28.3206 27.8023C28.3034 27.922 28.2691 27.9733 28.1661 27.9733C28.0631 27.9733 28.0288 27.922 28.0116 27.8023L26.4155 21.9039C26.3984 21.8184 26.3297 21.7671 26.2439 21.7671H24.665C24.6135 21.7671 24.562 21.7842 24.5277 21.8355C24.4934 21.8697 24.4762 21.921 24.4934 21.9723C24.4934 21.9723 26.4499 28.7426 26.467 28.811C26.7245 29.6145 27.3595 30.0078 28.1661 30.0078C28.9384 30.042 29.6421 29.5462 29.8652 28.811C29.8995 28.7255 31.8045 21.9723 31.8045 21.9723C31.8217 21.921 31.8045 21.8697 31.7702 21.8355C31.7359 21.8013 31.6844 21.7671 31.6329 21.7671H30.0883Z" fill="white"/>
<path d="M21.1639 16.2791H4.73961C4.13893 16.2791 3.58974 16.6039 3.29798 17.0997C2.98906 17.6126 2.9719 18.2452 3.2465 18.7581L4.89407 21.8697H1.90784C1.53027 21.8697 1.16986 22.0578 0.963915 22.3826C0.757967 22.7074 0.757967 23.1178 0.92959 23.4597L6.21557 33.41C6.40435 33.769 6.78192 33.9913 7.17666 33.9913C7.57139 33.9913 7.94896 33.769 8.13774 33.41L9.57937 30.7087L11.3814 34.111C11.6732 34.6581 12.2567 35 12.8745 35C13.4924 35 14.0759 34.6581 14.3676 34.111L22.6055 18.6726C22.8801 18.1597 22.863 17.5442 22.554 17.0655C22.2795 16.5697 21.7474 16.2791 21.1639 16.2791ZM13.8185 22.7929L10.2144 29.529C10.0942 29.7684 9.85397 29.9052 9.57937 29.9052C9.30478 29.9052 9.06451 29.7513 8.94437 29.529L5.39178 22.8613C5.28881 22.6562 5.28881 22.4168 5.40894 22.2116C5.52908 22.0065 5.75219 21.8868 5.9753 21.8868H13.2521C13.4752 21.8868 13.6812 21.9894 13.7841 22.1774C13.9214 22.3655 13.9214 22.6049 13.8185 22.7929Z" fill="white"/>
<path d="M3.66732 2.57884C4.69921 2.57884 5.4908 2.77674 6.04209 3.17253C6.60044 3.56126 6.87962 4.14435 6.87962 4.92181C6.87962 5.34587 6.80187 5.70986 6.64638 6.01378C6.49796 6.31062 6.27886 6.55446 5.98908 6.74529C5.70637 6.92905 5.36005 7.06334 4.95012 7.14816C4.54019 7.23297 4.07725 7.27537 3.5613 7.27537H2.74497V10H1.71661V2.75907C2.00639 2.68839 2.32797 2.64245 2.68136 2.62125C3.04182 2.59298 3.37047 2.57884 3.66732 2.57884ZM3.75213 3.47998C3.31393 3.47998 2.97821 3.49058 2.74497 3.51179V6.39544H3.51889C3.87228 6.39544 4.19033 6.37423 4.47304 6.33183C4.75575 6.28235 4.99252 6.20461 5.18335 6.09859C5.38125 5.98551 5.53321 5.83355 5.63922 5.64272C5.74524 5.45189 5.79825 5.20805 5.79825 4.91121C5.79825 4.6285 5.74171 4.39526 5.62862 4.2115C5.52261 4.02773 5.37418 3.88285 5.18335 3.77683C4.99959 3.66374 4.78402 3.586 4.53665 3.54359C4.28928 3.50119 4.02777 3.47998 3.75213 3.47998ZM12.7414 7.24357C12.7414 7.68177 12.6778 8.07757 12.5506 8.43096C12.4234 8.78434 12.2431 9.08826 12.0099 9.3427C11.7837 9.59714 11.5116 9.79503 11.1936 9.93639C10.8755 10.0707 10.5292 10.1378 10.1546 10.1378C9.78003 10.1378 9.43371 10.0707 9.11566 9.93639C8.79761 9.79503 8.52196 9.59714 8.28873 9.3427C8.06256 9.08826 7.88586 8.78434 7.75864 8.43096C7.63142 8.07757 7.56781 7.68177 7.56781 7.24357C7.56781 6.81244 7.63142 6.42017 7.75864 6.06679C7.88586 5.70633 8.06256 5.39888 8.28873 5.14444C8.52196 4.89 8.79761 4.69564 9.11566 4.56135C9.43371 4.42 9.78003 4.34932 10.1546 4.34932C10.5292 4.34932 10.8755 4.42 11.1936 4.56135C11.5116 4.69564 11.7837 4.89 12.0099 5.14444C12.2431 5.39888 12.4234 5.70633 12.5506 6.06679C12.6778 6.42017 12.7414 6.81244 12.7414 7.24357ZM11.7131 7.24357C11.7131 6.62161 11.5717 6.1304 11.289 5.76994C11.0134 5.40242 10.6352 5.21865 10.1546 5.21865C9.67401 5.21865 9.29235 5.40242 9.00964 5.76994C8.734 6.1304 8.59618 6.62161 8.59618 7.24357C8.59618 7.86553 8.734 8.36028 9.00964 8.7278C9.29235 9.08826 9.67401 9.26849 10.1546 9.26849C10.6352 9.26849 11.0134 9.08826 11.289 8.7278C11.5717 8.36028 11.7131 7.86553 11.7131 7.24357ZM18.4997 10C18.3018 9.49112 18.0898 8.91156 17.8636 8.26133C17.6445 7.60403 17.4431 6.92199 17.2593 6.21521C17.0755 6.92199 16.8741 7.60403 16.655 8.26133C16.4359 8.91156 16.2274 9.49112 16.0295 10H15.1708C14.8457 9.27202 14.5276 8.44156 14.2166 7.50861C13.9056 6.57567 13.6123 5.56851 13.3367 4.48714H14.3969C14.4675 4.81933 14.5523 5.17978 14.6513 5.56851C14.7502 5.95724 14.8527 6.34596 14.9587 6.73469C15.0718 7.12342 15.1884 7.49801 15.3086 7.85847C15.4287 8.21892 15.5418 8.53344 15.6478 8.80201C15.768 8.46983 15.8846 8.11997 15.9977 7.75245C16.1179 7.37786 16.2309 7.00327 16.337 6.62867C16.443 6.24701 16.5419 5.87596 16.6338 5.5155C16.7328 5.14798 16.8176 4.80519 16.8882 4.48714H17.7046C17.7682 4.80519 17.8459 5.14798 17.9378 5.5155C18.0297 5.87596 18.1286 6.24701 18.2347 6.62867C18.3407 7.00327 18.4502 7.37786 18.5633 7.75245C18.6835 8.11997 18.8036 8.46983 18.9238 8.80201C19.0298 8.53344 19.1393 8.21892 19.2524 7.85847C19.3726 7.49801 19.4892 7.12342 19.6023 6.73469C19.7154 6.34596 19.8214 5.95724 19.9203 5.56851C20.0193 5.17978 20.1041 4.81933 20.1748 4.48714H21.1925C20.9169 5.56851 20.6236 6.57567 20.3126 7.50861C20.0016 8.44156 19.6835 9.27202 19.3584 10H18.4997ZM21.9277 7.25417C21.9277 6.7665 21.9984 6.34243 22.1397 5.98197C22.2811 5.61445 22.4684 5.31053 22.7016 5.07023C22.9348 4.82993 23.2034 4.6497 23.5073 4.52955C23.8112 4.40939 24.1222 4.34932 24.4403 4.34932C25.1824 4.34932 25.7513 4.58256 26.1471 5.04903C26.5429 5.50843 26.7408 6.21168 26.7408 7.15876C26.7408 7.20116 26.7408 7.25771 26.7408 7.32838C26.7408 7.39199 26.7373 7.45207 26.7302 7.50861H22.956C22.9984 8.0811 23.1645 8.51577 23.4543 8.81261C23.7441 9.10946 24.1964 9.25788 24.8113 9.25788C25.1576 9.25788 25.4474 9.22961 25.6807 9.17307C25.921 9.10946 26.1012 9.04939 26.2213 8.99284L26.3592 9.81977C26.239 9.88338 26.027 9.95053 25.7231 10.0212C25.4262 10.0919 25.087 10.1272 24.7053 10.1272C24.2247 10.1272 23.8077 10.0565 23.4543 9.91519C23.108 9.76676 22.8217 9.56533 22.5956 9.31089C22.3694 9.05645 22.1998 8.75607 22.0867 8.40975C21.9807 8.05636 21.9277 7.67117 21.9277 7.25417ZM25.7125 6.71349C25.7195 6.26822 25.6064 5.90423 25.3732 5.62152C25.147 5.33174 24.8325 5.18685 24.4297 5.18685C24.2035 5.18685 24.0021 5.23279 23.8254 5.32467C23.6557 5.40948 23.5109 5.52257 23.3907 5.66392C23.2706 5.80528 23.1751 5.96784 23.1045 6.1516C23.0408 6.33536 22.9984 6.52266 22.9772 6.71349H25.7125ZM30.1927 4.37052C30.2775 4.37052 30.3729 4.37759 30.4789 4.39173C30.592 4.39879 30.7015 4.41293 30.8076 4.43413C30.9136 4.44827 31.009 4.46594 31.0938 4.48714C31.1857 4.50128 31.2528 4.51541 31.2952 4.52955L31.1256 5.38828C31.0479 5.36001 30.9171 5.3282 30.7333 5.29287C30.5566 5.25046 30.3269 5.22926 30.0442 5.22926C29.8605 5.22926 29.6767 5.25046 29.4929 5.29287C29.3163 5.3282 29.1996 5.35294 29.1431 5.36708V10H28.1571V4.72038C28.3904 4.63556 28.6802 4.55782 29.0265 4.48714C29.3728 4.40939 29.7615 4.37052 30.1927 4.37052ZM31.9392 7.25417C31.9392 6.7665 32.0099 6.34243 32.1512 5.98197C32.2926 5.61445 32.4799 5.31053 32.7131 5.07023C32.9464 4.82993 33.2149 4.6497 33.5188 4.52955C33.8228 4.40939 34.1337 4.34932 34.4518 4.34932C35.1939 4.34932 35.7629 4.58256 36.1587 5.04903C36.5544 5.50843 36.7523 6.21168 36.7523 7.15876C36.7523 7.20116 36.7523 7.25771 36.7523 7.32838C36.7523 7.39199 36.7488 7.45207 36.7417 7.50861H32.9676C33.01 8.0811 33.1761 8.51577 33.4658 8.81261C33.7556 9.10946 34.208 9.25788 34.8228 9.25788C35.1692 9.25788 35.4589 9.22961 35.6922 9.17307C35.9325 9.10946 36.1127 9.04939 36.2329 8.99284L36.3707 9.81977C36.2505 9.88338 36.0385 9.95053 35.7346 10.0212C35.4377 10.0919 35.0985 10.1272 34.7168 10.1272C34.2362 10.1272 33.8192 10.0565 33.4658 9.91519C33.1195 9.76676 32.8333 9.56533 32.6071 9.31089C32.3809 9.05645 32.2113 8.75607 32.0982 8.40975C31.9922 8.05636 31.9392 7.67117 31.9392 7.25417ZM35.724 6.71349C35.7311 6.26822 35.618 5.90423 35.3847 5.62152C35.1586 5.33174 34.844 5.18685 34.4412 5.18685C34.215 5.18685 34.0136 5.23279 33.8369 5.32467C33.6673 5.40948 33.5224 5.52257 33.4022 5.66392C33.2821 5.80528 33.1867 5.96784 33.116 6.1516C33.0524 6.33536 33.01 6.52266 32.9888 6.71349H35.724ZM41.7308 5.65332C41.6107 5.55437 41.4375 5.45896 41.2113 5.36708C40.9852 5.2752 40.7378 5.22926 40.4692 5.22926C40.1865 5.22926 39.9427 5.28226 39.7377 5.38828C39.5398 5.48723 39.3773 5.62858 39.25 5.81235C39.1228 5.98904 39.0309 6.20107 38.9744 6.44845C38.9178 6.69582 38.8896 6.96086 38.8896 7.24357C38.8896 7.88674 39.0486 8.38501 39.3666 8.7384C39.6847 9.08472 40.1088 9.25788 40.6388 9.25788C40.9074 9.25788 41.1301 9.24728 41.3068 9.22608C41.4905 9.19781 41.6319 9.16954 41.7308 9.14127V5.65332ZM41.7308 1.94274L42.7168 1.77312V9.84098C42.4906 9.90459 42.2008 9.9682 41.8474 10.0318C41.494 10.0954 41.0877 10.1272 40.6282 10.1272C40.2042 10.1272 39.8225 10.0601 39.4833 9.92579C39.144 9.7915 38.8542 9.60067 38.6139 9.3533C38.3736 9.10593 38.1863 8.80555 38.052 8.45216C37.9248 8.0917 37.8612 7.68884 37.8612 7.24357C37.8612 6.8195 37.9142 6.43078 38.0202 6.07739C38.1333 5.724 38.2959 5.42009 38.5079 5.16565C38.7199 4.91121 38.9779 4.71331 39.2818 4.57195C39.5928 4.4306 39.9462 4.35992 40.342 4.35992C40.6601 4.35992 40.9392 4.40233 41.1795 4.48714C41.4269 4.57195 41.6107 4.65323 41.7308 4.73098V1.94274ZM47.8513 4.73098C47.9714 4.65323 48.1517 4.57195 48.392 4.48714C48.6393 4.40233 48.922 4.35992 49.2401 4.35992C49.6359 4.35992 49.9857 4.4306 50.2897 4.57195C50.6006 4.71331 50.8622 4.91121 51.0742 5.16565C51.2862 5.42009 51.4452 5.724 51.5513 6.07739C51.6643 6.43078 51.7209 6.8195 51.7209 7.24357C51.7209 7.68884 51.6537 8.0917 51.5195 8.45216C51.3922 8.80555 51.2085 9.10593 50.9682 9.3533C50.7279 9.60067 50.4381 9.7915 50.0988 9.92579C49.7596 10.0601 49.3779 10.1272 48.9539 10.1272C48.4944 10.1272 48.0881 10.0954 47.7347 10.0318C47.3813 9.9682 47.0915 9.90459 46.8653 9.84098V1.94274L47.8513 1.77312V4.73098ZM47.8513 9.14127C47.9502 9.16954 48.0881 9.19781 48.2647 9.22608C48.4485 9.24728 48.6747 9.25788 48.9433 9.25788C49.4733 9.25788 49.8974 9.08472 50.2155 8.7384C50.5335 8.38501 50.6925 7.88674 50.6925 7.24357C50.6925 6.96086 50.6643 6.69582 50.6077 6.44845C50.5512 6.20107 50.4593 5.98904 50.3321 5.81235C50.2049 5.62858 50.0388 5.48723 49.8338 5.38828C49.6359 5.28226 49.3956 5.22926 49.1129 5.22926C48.8443 5.22926 48.5969 5.2752 48.3708 5.36708C48.1446 5.45896 47.9714 5.55437 47.8513 5.65332V9.14127ZM52.327 11.0284C52.4047 11.0637 52.5037 11.0955 52.6238 11.1238C52.7511 11.1591 52.8748 11.1768 52.9949 11.1768C53.3836 11.1768 53.6875 11.0884 53.9067 10.9117C54.1258 10.7421 54.3236 10.4629 54.5003 10.0742C54.0551 9.22608 53.6381 8.32847 53.2493 7.38139C52.8677 6.42724 52.5496 5.46249 52.2952 4.48714H53.3554C53.4331 4.80519 53.525 5.14798 53.631 5.5155C53.7441 5.88302 53.8678 6.26115 54.0021 6.64988C54.1364 7.0386 54.2812 7.42733 54.4367 7.81606C54.5922 8.20479 54.7548 8.57938 54.9244 8.93983C55.193 8.19772 55.4262 7.46267 55.6241 6.73469C55.822 6.00671 56.0093 5.25753 56.186 4.48714H57.2038C56.9493 5.5261 56.6666 6.52619 56.3556 7.48741C56.0447 8.44156 55.7089 9.33563 55.3485 10.1696C55.2071 10.4877 55.0587 10.7598 54.9032 10.986C54.7548 11.2192 54.5887 11.41 54.4049 11.5584C54.2212 11.7069 54.0127 11.8164 53.7794 11.8871C53.5533 11.9578 53.2953 11.9931 53.0055 11.9931C52.9278 11.9931 52.8465 11.986 52.7617 11.9719C52.6769 11.9648 52.592 11.9507 52.5072 11.9295C52.4295 11.9154 52.3553 11.8977 52.2846 11.8765C52.221 11.8553 52.175 11.8376 52.1468 11.8235L52.327 11.0284Z" fill="white"/>
</svg>
